<svg class="svg-icon" style="width: 1em;height: 1em;vertical-align: middle;fill: currentColor;overflow: hidden;" viewBox="0 0 1024 1024" version="1.1" xmlns="http://www.w3.org/2000/svg"><path d="M503.936 549.205333c-24.533333 57.685333-46.08 101.376-64.853333 131.2 8.533333 12.458667 17.493333 23.552 26.666666 33.28 9.130667 9.770667 18.005333 18.218667 26.197334 25.685334 8.362667 7.296 17.664 13.653333 28.202666 19.114666 10.453333 5.546667 19.754667 10.154667 27.605334 13.781334 8.021333 3.797333 18.048 6.698667 30.122666 8.96 21.162667 4.48 42.666667 6.997333 64.256 7.509333 14.250667 0.554667 25.770667 0.725333 34.730667 0.554667 8.96-0.256 21.76-0.341333 38.656-0.554667l40.405333-0.213333v92.202666a14.805333 14.805333 0 0 0 4.437334 10.794667 14.549333 14.549333 0 0 0 10.666666 4.48 14.677333 14.677333 0 0 0 10.922667-4.309333l152.405333-153.856a14.762667 14.762667 0 0 0 4.266667-10.965334 13.568 13.568 0 0 0-4.266667-10.666666l-151.893333-153.173334a17.706667 17.706667 0 0 0-11.434667-4.906666 14.506667 14.506667 0 0 0-10.837333 4.266666 14.762667 14.762667 0 0 0-4.266667 11.008v92.16H634.026667a106.453333 106.453333 0 0 1-38.912-6.912 108.373333 108.373333 0 0 1-30.037334-16.768 137.429333 137.429333 0 0 1-24.234666-27.264 318.805333 318.805333 0 0 1-19.285334-30.549333c-6.101333-11.52-12.032-23.082667-17.664-34.858667h0.042667zM770.901333 128a14.506667 14.506667 0 0 0-10.922666 4.266667 14.762667 14.762667 0 0 0-4.266667 11.093333h0.085333v92.16h-121.898666a229.674667 229.674667 0 0 0-111.658667 28.117333c-15.786667 8.917333-30.208 19.968-42.965333 32.853334-13.866667 13.909333-25.6 27.050667-35.285334 39.978666-11.221333 15.274667-21.376 31.274667-30.421333 47.957334-10.538667 19.2-19.2 36.010667-25.685333 50.389333-6.485333 14.464-14.421333 32.341333-23.552 53.418667-14.634667 34.858667-27.008 62.293333-37.205334 82.090666a380.373333 380.373333 0 0 1-21.376 37.248c-7.082667 10.624-15.189333 20.48-24.192 29.482667-9.386667 9.472-20.565333 16.810667-32.938666 21.589333-12.416 4.693333-26.197333 7.210667-41.429334 7.210667h-106.666666a14.634667 14.634667 0 0 0-10.88 4.309333 14.890667 14.890667 0 0 0-4.266667 10.965334v92.202666a14.762667 14.762667 0 0 0 4.266667 10.922667 14.506667 14.506667 0 0 0 10.794666 4.266667h106.666667c21.717333 0 42.069333-2.56 61.098667-7.850667a236.032 236.032 0 0 0 50.645333-20.309333c15.744-8.917333 30.165333-19.968 42.922667-32.853334 13.824-13.909333 25.6-27.050667 35.328-39.978666 9.557333-12.672 19.797333-28.629333 30.336-47.957334 10.581333-19.2 19.2-36.010667 25.728-50.389333 6.528-14.464 14.378667-32.341333 23.594666-53.418667 14.634667-34.858667 26.965333-62.165333 37.12-82.090666 7.552-14.72 14.677333-27.093333 21.418667-37.248a202.24 202.24 0 0 1 24.234667-29.482667c9.472-9.557333 20.48-16.725333 32.853333-21.589333 12.501333-4.693333 26.197333-7.168 41.429333-7.168h122.112v92.16a14.805333 14.805333 0 0 0 4.437334 10.794666 14.549333 14.549333 0 0 0 10.666666 4.48 14.677333 14.677333 0 0 0 10.922667-4.266666l152.405333-153.898667a14.762667 14.762667 0 0 0 4.266667-10.965333 13.952 13.952 0 0 0-4.266667-10.752l-151.978666-152.874667A17.706667 17.706667 0 0 0 770.986667 128h-0.085334zM207.274667 235.093333h-106.666667a14.506667 14.506667 0 0 0-10.88 4.266667 14.762667 14.762667 0 0 0-4.266667 10.965333V342.613333a14.762667 14.762667 0 0 0 4.266667 10.965334 14.506667 14.506667 0 0 0 10.837333 4.309333h106.666667a111.061333 111.061333 0 0 1 68.864 23.808c8.064 6.528 16.170667 15.658667 24.277333 27.178667 8.106667 11.52 14.506667 21.76 19.242667 30.549333 4.906667 8.917333 10.624 20.48 17.706667 34.858667 24.362667-57.984 46.122667-101.674667 65.152-131.114667-50.773333-72.106667-116.010667-108.202667-195.157334-108.032h-0.085333z" fill="#2D26EF" /></svg>